<svg width="32" height="32" viewBox="0 0 32 32" fill="none" xmlns="http://www.w3.org/2000/svg">
<g clip-path="url(#clip0_311_2)">
<path d="M27 0H5C2.23858 0 0 2.23858 0 5V27C0 29.7614 2.23858 32 5 32H27C29.7614 32 32 29.7614 32 27V5C32 2.23858 29.7614 0 27 0Z" fill="url(#paint0_radial_311_2)"/>
<path fill-rule="evenodd" clip-rule="evenodd" d="M3 16V18.6419C3 21.599 5.31798 24 8.1736 24H12.1976C13.5779 24 14.8323 23.439 15.7604 22.5255H16.2411C17.1683 23.439 18.4236 24 19.8038 24H23.8271C26.6528 24 28.9527 21.6487 29 18.7341L26.2541 18.4454C26.184 19.9551 24.9781 21.1586 23.5033 21.1586H20.1274C18.6076 21.1586 17.3733 19.8805 17.3733 18.3064V17.5115L14.6274 17.2227V18.3064C14.6274 19.8805 13.3931 21.1586 11.8732 21.1586H8.49729C6.97744 21.1586 5.74379 19.8805 5.74379 18.3064V16.2885L3 16Z" fill="#FDD65D"/>
<path fill-rule="evenodd" clip-rule="evenodd" d="M3 13.2658L5.74587 13.5546C5.81602 12.0449 7.0219 10.8414 8.4966 10.8414H11.8725C13.3924 10.8414 14.6267 12.1194 14.6267 13.6936V14.4885L17.3725 14.7773V13.6936C17.3725 12.1194 18.6069 10.8414 20.1268 10.8414H23.5027C25.0226 10.8414 26.2569 12.1194 26.2569 13.6936V15.7115L29 16V13.3581C29 10.4009 26.682 8 23.8264 8H19.8031C18.4229 8 17.1677 8.56101 16.2403 9.47446H15.7597C14.8316 8.56101 13.5771 8 12.1969 8H8.17291C5.34716 8 3.04793 10.3512 3 13.2658Z" fill="white"/>
</g>
<defs>
<radialGradient id="paint0_radial_311_2" cx="0" cy="0" r="1" gradientUnits="userSpaceOnUse" gradientTransform="translate(16 16) rotate(90) scale(16)">
<stop/>
<stop offset="1" stop-color="#2F2F2F"/>
</radialGradient>
<clipPath id="clip0_311_2">
<rect width="32" height="32" fill="white"/>
</clipPath>
</defs>
</svg>
