<svg width="51" height="31" viewBox="0 0 51 31" fill="none" xmlns="http://www.w3.org/2000/svg">
<path fill-rule="evenodd" clip-rule="evenodd" d="M0.764404 10.0259L6.0446 10.5608C6.17951 7.76431 8.49838 5.53493 11.3342 5.53493H17.8259C20.7486 5.53493 23.1221 7.90237 23.1221 10.8184V12.2908L28.4023 12.8257V10.8184C28.4023 7.90237 30.7759 5.53493 33.6986 5.53493H40.1903C43.1129 5.53493 45.4866 7.90237 45.4866 10.8184V14.5563L50.7614 15.0907V10.1969C50.7614 4.71894 46.304 0.271606 40.8128 0.271606H33.0762C30.4221 0.271606 28.0084 1.31082 26.2251 3.00288H25.3009C23.5162 1.31082 21.1038 0.271606 18.4497 0.271606H10.7117C5.2779 0.271606 0.856571 4.62699 0.764404 10.0259Z" fill="white"/>
<path fill-rule="evenodd" clip-rule="evenodd" d="M0.764404 15.2424V20.1363C0.764404 25.614 5.2218 30.0616 10.7131 30.0616H18.451C21.1053 30.0616 23.5175 29.0223 25.3022 27.3302H26.2265C28.0097 29.0223 30.4234 30.0616 33.0775 30.0616H40.8141C46.248 30.0616 50.6706 25.7061 50.7615 20.307L45.4813 19.7723C45.3464 22.5688 43.0275 24.7982 40.1916 24.7982H33.6999C30.7772 24.7982 28.4037 22.4307 28.4037 19.5147V18.0423L23.1234 17.5074V19.5147C23.1234 22.4307 20.7499 24.7982 17.8272 24.7982H11.3355C8.41288 24.7982 6.04062 22.4307 6.04062 19.5147V15.7769L0.764404 15.2424Z" fill="#FDD65D"/>
</svg>
